#!OML:ASF E:\Style4\Style4.ASF
:FULLY-SPECIFIED
:DEGREES
3139
root -0.288294 17.0145 -1.03869 -1.96283 -10.3639 5.95314
lowerback 10.2048 -0.128531 -5.54157
upperback 3.24569 -0.722135 0.396648
thorax -2.25843 -0.370909 3.62012
lowerneck 2.60688 -2.82357 -4.48696
upperneck -5.3645 -3.84396 2.73003
head -1.99637 -1.89882 1.73168
rclavicle 1.49089e-014 -1.90833e-014
rhumerus 30.293 31.1627 -60.5811
rradius 121.479
rwrist 12.0868
rhand -40.6123 41.7164
rfingers 7.12502
rthumb -13.558 12.1778
lclavicle 1.49089e-014 -1.90833e-014
lhumerus 34.351 -38.8666 61.4908
lradius 125.75
lwrist -1.65557
lhand -28.7773 22.3334
lfingers 7.12502
lthumb -2.1366 52.3025
rfemur -23.6751 4.02371 13.9784
rtibia 51.7542
rfoot -25.4137 -12.9919
rtoes -11.6726
lfemur -16.9965 6.51781 -24.4128
ltibia 45.5753
lfoot -26.6094 12.4922
ltoes -17.2222
3140
root -0.306206 17.018 -1.04421 -1.92748 -10.1627 5.88632
lowerback 10.173 -0.130164 -5.51331
upperback 3.28158 -0.718164 0.40435
thorax -2.20428 -0.371234 3.61096
lowerneck 2.5738 -2.82659 -4.53886
upperneck -5.31278 -3.84724 2.76638
head -1.9721 -1.90059 1.75076
rclavicle -1.89839e-014 5.56597e-015
rhumerus 30.2414 31.1584 -60.6139
rradius 121.562
rwrist 12.1034
rhand -40.4619 41.5744
rfingers 7.12502
rthumb -13.413 12.0262
lclavicle -1.89839e-014 5.56597e-015
lhumerus 34.2457 -38.758 61.5804
lradius 125.644
lwrist -1.6189
lhand -28.6665 21.806
lfingers 7.12502
lthumb -2.02964 51.776
rfemur -23.6348 3.95266 14.1218
rtibia 51.715
rfoot -25.4028 -13.1111
rtoes -11.6714
lfemur -17.0275 6.43935 -24.271
ltibia 45.5232
lfoot -26.5388 12.338
ltoes -17.094
3141
root -0.320825 17.0195 -1.04981 -1.92525 -9.93795 5.91233
lowerback 10.1748 -0.122795 -5.52699
upperback 3.31843 -0.70917 0.38861
thorax -2.16775 -0.368538 3.60089
lowerneck 2.61882 -2.8447 -4.6269
upperneck -5.34903 -3.87473 2.81685
head -1.98892 -1.91372 1.78507
rclavicle 2.83268e-014 7.95139e-015
rhumerus 30.2266 31.1037 -60.5785
rradius 121.626
rwrist 12.223
rhand -40.5038 41.3648
rfingers 7.12502
rthumb -13.4534 11.8193
lclavicle 2.83268e-014 7.95139e-015
lhumerus 34.1747 -38.5603 61.6719
lradius 125.525
lwrist -1.49834
lhand -28.5862 21.381
lfingers 7.12502
lthumb -1.95207 51.3519
rfemur -23.582 3.82142 14.14
rtibia 51.6843
rfoot -25.3976 -13.1917
rtoes -11.4373
lfemur -17.0344 6.33188 -24.2409
ltibia 45.4705
lfoot -26.4749 12.1686
ltoes -16.9503
3142
root -0.334139 17.021 -1.05446 -1.92357 -9.76989 5.9015
lowerback 10.2102 -0.0960824 -5.489
upperback 3.32829 -0.672402 0.366852
thorax -2.18163 -0.349847 3.55285
lowerneck 2.71898 -2.84744 -4.57531
upperneck -5.39181 -3.88352 2.75418
head -2.0223 -1.9176 1.75924
rclavicle 1.2921e-014 -1.03368e-014
rhumerus 30.1793 31.07 -60.5581
rradius 121.63
rwrist 12.2701
rhand -40.5188 41.3255
rfingers 7.12502
rthumb -13.4678 11.7809
lclavicle 1.2921e-014 -1.03368e-014
lhumerus 34.0949 -38.4177 61.6798
lradius 125.507
lwrist -1.27214
lhand -28.4335 21.3236
lfingers 7.12502
lthumb -1.80463 51.2957
rfemur -23.537 3.71943 14.2026
rtibia 51.6538
rfoot -25.3181 -13.364
rtoes -11.594
lfemur -17.0324 6.2459 -24.1777
ltibia 45.4185
lfoot -26.3511 12.1291
ltoes -17.365
3143
root -0.348386 17.0243 -1.05864 -1.88078 -9.55872 5.8997
lowerback 10.1863 -0.0979447 -5.49259
upperback 3.33523 -0.673506 0.360434
thorax -2.16111 -0.35102 3.54791
lowerneck 2.75681 -2.83804 -4.55062
upperneck -5.35463 -3.87401 2.70758
head -2.01841 -1.9126 1.73976
rclavicle 1.74931e-014 7.15625e-015
rhumerus 30.1206 31.0842 -60.553
rradius 121.649
rwrist 12.2728
rhand -40.4807 41.3468
rfingers 7.12502
rthumb -13.4311 11.7998
lclavicle 1.74931e-014 7.15625e-015
lhumerus 33.9556 -38.3533 61.7179
lradius 125.568
lwrist -1.16602
lhand -28.2174 21.25
lfingers 7.12502
lthumb -1.59593 51.2238
rfemur -23.5271 3.59879 14.2518
rtibia 51.6293
rfoot -25.3154 -13.48
rtoes -11.851
lfemur -17.0625 6.08547 -24.1322
ltibia 45.3491
lfoot -26.2645 12.0963
ltoes -17.7333
3144
root -0.362389 17.0297 -1.06362 -1.84995 -9.29492 5.99015
lowerback 10.2015 -0.100158 -5.57556
upperback 3.3214 -0.686354 0.337186
thorax -2.18154 -0.356443 3.57228
lowerneck 2.7299 -2.842 -4.57064
upperneck -5.19278 -3.88204 2.66066
head -1.96078 -1.91625 1.72415
rclavicle 2.45499e-014 -1.43125e-014
rhumerus 30.0157 31.1042 -60.5632
rradius 121.677
rwrist 12.2473
rhand -40.3112 41.6994
rfingers 7.12502
rthumb -13.2678 12.1417
lclavicle 2.45499e-014 -1.43125e-014
lhumerus 33.7596 -38.3761 61.8106
lradius 125.617
lwrist -1.11356
lhand -28.0999 21.0907
lfingers 7.12502
lthumb -1.48244 51.0652
rfemur -23.5154 3.44196 14.1892
rtibia 51.6171
rfoot -25.361 -13.4626
rtoes -11.7983
lfemur -17.0911 5.83624 -24.1988
ltibia 45.2688
lfoot -26.2117 12.1451
ltoes -18.0563
3145
root -0.375635 17.0332 -1.06769 -1.83014 -9.0604 6.04875
lowerback 10.2015 -0.0864073 -5.59477
upperback 3.3365 -0.67042 0.301921
thorax -2.16762 -0.349064 3.5443
lowerneck 2.77111 -2.86834 -4.49451
upperneck -5.12599 -3.92075 2.56115
head -1.94752 -1.93529 1.67894
rclavicle 7.35503e-015 3.97569e-015
rhumerus 29.9733 31.0451 -60.5702
rradius 121.664
rwrist 12.2256
rhand -40.2334 42.0389
rfingers 7.12502
rthumb -13.1927 12.4763
lclavicle 7.35503e-015 3.97569e-015
lhumerus 33.6661 -38.4342 61.7816
lradius 125.64
lwrist -1.11005
lhand -28.1499 20.8377
lfingers 7.12502
lthumb -1.53068 50.812
rfemur -23.487 3.28431 14.1628
rtibia 51.6029
rfoot -25.3868 -13.506
rtoes -11.6908
lfemur -17.101 5.65508 -24.2254
ltibia 45.1935
lfoot -26.1348 12.0836
ltoes -17.967
3146
root -0.389254 17.0342 -1.07472 -1.77273 -8.83442 6.10432
lowerback 10.158 -0.0886708 -5.62044
upperback 3.37005 -0.672882 0.272604
thorax -2.10844 -0.352613 3.52757
lowerneck 2.81702 -2.89477 -4.4637
upperneck -5.15461 -3.95942 2.5062
head -1.96494 -1.95373 1.65826
rclavicle 4.96962e-016 -1.35174e-014
rhumerus 30.0327 31.0648 -60.429
rradius 121.69
rwrist 12.1123
rhand -40.3605 42.0384
rfingers 7.12502
rthumb -13.3152 12.4838
lclavicle 4.96962e-016 -1.35174e-014
lhumerus 33.6592 -38.4242 61.7109
lradius 125.632
lwrist -1.14009
lhand -28.2242 20.7935
lfingers 7.12502
lthumb -1.60247 50.7672
rfemur -23.524 3.13172 14.1445
rtibia 51.5942
rfoot -25.3963 -13.6159
rtoes -11.7682
lfemur -17.1901 5.47612 -24.2458
ltibia 45.1456
lfoot -25.9967 12.0502
ltoes -17.8838
